<?xml version="1.0" encoding="UTF-8"?>
<!DOCTYPE svg PUBLIC "-//W3C//DTD SVG 1.1//EN" "http://www.w3.org/Graphics/SVG/1.1/DTD/svg11.dtd">
<!-- Creator: CorelDRAW -->
<svg xmlns="http://www.w3.org/2000/svg" xml:space="preserve" width="200mm" height="228mm" version="1.1" style="shape-rendering:geometricPrecision; text-rendering:geometricPrecision; image-rendering:optimizeQuality; fill-rule:evenodd; clip-rule:evenodd"
viewBox="0 0 20000 22800"
 xmlns:xlink="http://www.w3.org/1999/xlink"
 xmlns:xodm="http://www.corel.com/coreldraw/odm/2003">
 <defs>
  <style type="text/css">
   <![CDATA[
    .fil0 {fill:#D6BF01}
    .fil1 {fill:#FFDE00}
    .fil2 {fill:white}
   ]]>
  </style>
 </defs>
 <g id="Capa_x0020_1">
  <metadata id="CorelCorpID_0Corel-Layer"/>
  <g id="_2094858716768">
   <polygon class="fil0" points="-7.13,33.05 19992.87,33.05 19992.23,33.62 18223.4,20412 10008.67,22768.01 9976.26,22768.01 9976.44,22767.45 1761.7,20411.44 "/>
   <polygon class="fil1" points="16623.52,19134.63 9976.26,20958.54 9976.26,1700.8 18191.11,1700.8 "/>
   <path class="fil2" d="M13444.06 6516.14l0 2500.47 3153.05 0 -697.64 7775.24 -5001.25 1389.18 0 -2646.31 2617.01 -737.17 281.96 -3227.64c-964.77,0 -1929.53,0 -2894.3,0l0 -7627.47c2049.83,0 4099.67,0 6149.51,0l-230.93 2573.7 -3377.41 0zm-7552.59 -2573.7l2568.95 0 0 11556.93 0 1677.75 0 1014.94 -4990.73 -1376.22 -241.36 -2652.46 2663.14 680.02 0 -10900.96z"/>
  </g>
 </g>
</svg>
